<svg xmlns="http://www.w3.org/2000/svg" xmlns:xlink="http://www.w3.org/1999/xlink" width="825.7536000000001" height="472.8176000000001" viewBox="101.17119999999996 269.73119999999994 825.7536000000001 472.8176000000001">
	<path fill="#7C2583" transform="scale(2 2)" d="M377.879 148.599L417.523 148.598C427.185 148.592 436.125 146.62 443.715 153.917C453.364 163.196 449.688 196.938 449.685 210.303L449.697 322.216C449.742 347.144 451.982 357.556 420.672 357.532L134.375 357.519L96.3865 357.505C90.5437 357.509 82.1781 358.246 76.6554 357.047C59.9071 353.408 62.3794 336.363 62.3789 323.817L62.2635 169.864C62.2013 150.006 77.4553 148.563 92.0015 148.587L377.879 148.599Z"></path>
	<path fill="#F77C01" transform="scale(2 2)" d="M74.2753 343.758L74.4529 342.526C75.6595 341.663 77.3488 343.428 78.5198 343.888C82.1789 345.328 88.7513 344.617 92.6527 344.606L129.901 344.59C133.219 344.592 136.645 344.776 139.952 344.58C141.12 346.507 142.317 348.3 143.758 350.035L97.0238 350.026C91.9468 350.026 78.7242 351.171 75.0257 348.938C74.6049 347.239 74.4627 345.494 74.2753 343.758Z"></path>
	<path fill="#FCD545" transform="scale(2 2)" d="M130.521 180.708C132.728 180.736 134.939 180.709 137.147 180.708C138.18 189.536 133.746 200.682 128.306 207.508C120.192 217.688 113.645 220.035 101.266 222.459C101.442 225.333 101.29 228.23 101.272 231.108L101.271 280.954C101.273 282.985 101.749 289.699 101.266 291.132C99.3246 290.982 96.4841 291.084 94.8423 290.002C93.1314 285.965 94.1853 266.35 94.1839 261.064C94.1826 256.535 93.4356 218.582 94.6184 217.308C96.1614 215.647 130.136 217.86 130.521 180.708Z"></path>
	<defs>
		<linearGradient id="gradient_0" gradientUnits="userSpaceOnUse" x1="157.10596" y1="238.20552" x2="55.650631" y2="255.41072">
			<stop offset="0" stop-color="#FDB723"></stop>
			<stop offset="1" stop-color="#FFD145"></stop>
		</linearGradient>
	</defs>
	<path fill="url(#gradient_0)" transform="scale(2 2)" d="M75.0257 348.938C66.5684 342.374 69.4899 328.413 69.4979 318.455L69.4946 205.879C69.4929 193.593 69.1711 181.224 69.5155 168.949C69.8746 156.151 79.0808 155.782 89.1023 155.832L130.429 155.862C135.231 155.855 140.048 155.704 144.848 155.863C143.08 157.636 141.268 159.378 139.952 161.523C138.206 161.314 136.331 161.544 134.562 161.545L98.4196 161.51C77.4599 161.514 74.688 164.565 74.5628 186.503L74.2507 335.402C74.2409 338.144 74.0132 341.036 74.2753 343.758C74.4627 345.494 74.6049 347.239 75.0257 348.938Z"></path>
	<path fill="#F77C01" transform="scale(2 2)" d="M373.043 343.758C373.589 345.656 377.376 344.553 379.001 344.524C393.486 344.272 407.991 345.321 422.466 344.353C438.115 343.306 436.8 331.596 436.759 318.921L436.756 186.496C436.757 181.788 435.889 168.183 437.628 164.051L438.31 163.779C439.531 165.446 441.086 166.913 442.819 168.046L442.82 319.413C442.841 333.449 447.023 350.153 428.023 350.099L375.751 350.058C373.252 350.075 370.72 350.247 368.229 350.035C370.123 348.006 371.735 346.215 373.043 343.758Z"></path>
	<path fill="#9333E9" transform="scale(2 2)" d="M144.848 173.316C138.991 173.379 147.681 163.301 149.143 161.911C158.308 153.193 173.219 155.863 184.762 155.863L307.477 155.862C319.896 155.86 353.472 152.187 361.836 161.015C365.214 164.138 367.556 169.114 369.264 173.316L152.053 173.342C149.701 173.355 147.178 173.591 144.848 173.316Z"></path>
	<path fill="#9333E9" transform="scale(2 2)" d="M144.848 332.515L368.229 332.515C367.523 337.409 366.691 340.93 363.155 344.58C355.524 351.279 349.847 350.031 340.274 350.036L172.329 350.037C156.925 350.034 146.648 351.087 144.848 332.515Z"></path>
	<path fill="#FCB040" transform="scale(2 2)" d="M74.2753 343.758C74.0132 341.036 74.2409 338.144 74.2507 335.402L74.5628 186.503C74.688 164.565 77.4599 161.514 98.4196 161.51L134.562 161.545C136.331 161.544 138.206 161.314 139.952 161.523C137.612 165.272 136.039 168.862 135.646 173.316C120.76 173.347 124.996 175.277 122.744 187.811C120.602 199.733 110.34 208.105 98.5253 209.516C85.7695 211.04 86.9462 215.219 86.9403 226.069L86.9357 239.397C86.9329 254.618 86.7934 269.856 86.9547 285.076C87.1017 298.94 92.054 296.293 102.039 298.52C126.179 303.903 120.108 328.059 127.556 331.345C130.279 332.547 135 332.063 138.078 332.515C137.964 336.718 138.257 340.682 139.952 344.58C136.645 344.776 133.219 344.592 129.901 344.59L92.6527 344.606C88.7513 344.617 82.1789 345.328 78.5198 343.888C77.3488 343.428 75.6595 341.663 74.4529 342.526L74.2753 343.758Z"></path>
	<path fill="#FCB040" transform="scale(2 2)" d="M365.881 155.863L413.073 155.87C420.69 155.872 432.156 154.247 438.31 158.772C441.106 161.393 442.343 164.302 442.819 168.046C441.086 166.913 439.531 165.446 438.31 163.779L437.628 164.051C435.889 168.183 436.757 181.788 436.756 186.496L436.759 318.921C436.8 331.596 438.115 343.306 422.466 344.353C407.991 345.321 393.486 344.272 379.001 344.524C377.376 344.553 373.589 345.656 373.043 343.758C374.616 340.129 375.335 336.364 376.14 332.515C388.578 330.873 387.787 324.593 391.673 314.507C400.938 290.466 425.103 307.832 425.135 285.681L425.106 238.259C425.106 224.301 429.516 210.769 412.338 208.638C401.431 207.284 392.511 199.805 389.688 189.118C386.783 178.125 391.311 173.228 376.14 173.316C375.499 169.074 373.538 165.271 371.56 161.523C369.721 159.572 367.914 157.616 365.881 155.863Z"></path>
	<path fill="#FCB040" transform="scale(2 2)" d="M137.147 180.708L381.805 180.708C380.755 199.064 394.995 213.357 412.271 216.477C416.621 216.26 417.995 216.953 418.164 221.495C418.64 234.307 418.18 247.575 418.19 260.433L418.21 276.839C418.213 280.452 419.216 287.86 416.387 290.7C413.058 294.042 395.592 289.269 385.913 309.822C384.34 313.162 382.524 323.287 379.137 324.609C377.002 325.442 335.371 324.963 329.523 324.963L149.438 324.959C143.169 324.961 136.771 325.472 130.521 324.956C129.957 322.587 129.797 320.143 129.566 317.724C126.325 303.593 115.115 294.372 101.266 291.132C101.749 289.699 101.273 282.985 101.271 280.954L101.272 231.108C101.29 228.23 101.442 225.333 101.266 222.459C113.645 220.035 120.192 217.688 128.306 207.508C133.746 200.682 138.18 189.536 137.147 180.708Z"></path>
	<path fill="#9333E9" transform="scale(2 2)" d="M150.601 240.829C166.821 241.597 166.908 264.341 151.684 266.033C134.973 266.262 132.858 243.284 150.601 240.829Z"></path>
	<path fill="#9333E9" transform="scale(2 2)" d="M360.126 239.545C375.071 238.208 381.763 259.693 363.155 266.033C344.517 263.807 344.676 242.481 360.126 239.545Z"></path>
	<path fill="#7C2583" transform="scale(2 2)" d="M255.494 193.504C270.293 192.027 286.377 200.308 296.86 210.193C334.959 246.115 309.71 310.331 257.247 311.445C225.431 312.155 197.348 285.424 196.936 253.456C196.514 220.759 222.755 193.813 255.494 193.504Z"></path>
	<path fill="#FCD545" transform="scale(2 2)" d="M253.096 200.848C295.615 197.882 324.568 249.118 296.98 284.044C287.539 295.996 274.23 302.219 259.324 303.961C232.161 305.027 207.138 285.189 204.619 257.538C201.863 227.296 223.247 203.418 253.096 200.848Z"></path>
	<path fill="#7C2583" transform="scale(2 2)" d="M255.494 216.477C259.29 216.259 259.994 219.28 260.163 222.459C264.628 224.462 268.382 226.49 270.864 230.882C273.244 235.094 275.216 248.467 268.091 245.167C264.77 243.628 266.148 238.329 264.974 235.395C260.318 223.759 241.402 231.726 247.625 243.654C250.932 249.992 256.636 247.865 262.137 249.769C277.601 255.12 277.225 275.436 260.163 282.981C260.412 285.17 260.677 287.016 259.324 288.913C254.083 293.131 252.416 287.171 252.511 282.981C246.262 280.536 236.502 271.687 239.647 264.562C242.587 257.901 246.228 264.397 247.264 268.511C250.634 281.892 269.961 274.871 264.802 261.628C261.988 254.403 253.984 257.032 248.426 254.554C234.339 248.275 235.703 228.476 252.511 222.459C252.158 219.402 252.769 218.135 255.494 216.477Z"></path>
</svg>