<svg xmlns="http://www.w3.org/2000/svg" xmlns:xlink="http://www.w3.org/1999/xlink" width="739.9216000000001" height="601.4896000000001" viewBox="139.70719999999994 206.29919999999996 739.9216000000001 601.4896000000001">
	<defs>
		<linearGradient id="gradient_0" gradientUnits="userSpaceOnUse" x1="80.802147" y1="275.0864" x2="441.60046" y2="219.15251">
			<stop offset="0" stop-color="#9A2D38"></stop>
			<stop offset="1" stop-color="#7F176E"></stop>
		</linearGradient>
	</defs>
	<path fill="url(#gradient_0)" transform="scale(2 2)" d="M383.916 114.625C396.457 113.043 409.786 119.112 418.625 127.757C444.028 152.6 433.47 195.944 401.204 208.14C393.146 211.186 392.76 212.567 386.67 218.698C394.997 222.036 395.175 230.688 398.485 237.995C409.874 238.904 410.45 250.629 411.67 260.117C421.95 258.183 420.573 271.893 421.039 278.216L422.963 303.827C423.71 314.544 425.445 325.691 425.495 336.385C425.545 346.965 415.609 345.709 407.86 346.241C390.689 347.419 384.235 357.884 361.365 352.283C358.412 351.559 355.562 350.543 352.526 350.215C341.648 349.04 327.934 356.308 328.46 338.464C323.753 343.355 319.481 348.558 314.548 353.254C268.39 397.194 202.8 403.871 147.861 373.94C101.118 345.824 72.9192 292.952 79.8933 238.159C95.4053 116.285 250.023 71.3852 325.282 168.698C329.289 164.743 333.803 161.053 337.491 156.814C341.944 133.264 358.807 114.943 383.916 114.625ZM349.125 139.806C346.523 143.337 344.628 147.581 343.465 151.801C345.535 149.841 347.406 148.158 349.921 146.808C354.231 142.702 348.5 144.582 349.125 139.806Z"></path>
	<path fill="#FCD545" transform="scale(2 2)" d="M399.878 243.621C404.731 242.98 405.705 256.828 406.343 260.117C397.134 261.465 388.162 261.278 378.89 261.271L349.125 261.263C346.327 261.111 343.516 261.228 340.716 261.263C354.105 257.565 367.468 253.502 380.748 249.43C387.05 247.497 393.396 244.83 399.878 243.621Z"></path>
	<path fill="#BCCA20" transform="scale(2 2)" d="M383.116 222.942C389.863 223.252 391.863 235.474 393.277 240.708C387.496 241.352 381.464 243.616 375.863 245.235L342.349 255.156C339.437 255.981 336.576 256.867 333.717 257.863C337.177 254.324 340.464 250.763 343.465 246.821C351.211 248.529 354.227 241.732 359.672 237.998C362.59 235.997 366.359 236.562 369.286 234.695C374.254 231.526 377.884 226.431 382.816 223.14L383.116 222.942Z"></path>
	<path fill="#BCCA20" transform="scale(2 2)" d="M396.757 266.17C417.436 261.541 415.204 264.401 416.45 281.811L419.544 325.624C420.109 332.943 423.144 340.48 413.881 341.045C408.067 341.399 402.331 341.346 396.757 343.268C396.58 339.306 397.529 335.095 397.803 331.108C398.875 315.542 399.117 299.233 398.133 283.664C397.768 277.908 396.647 271.891 396.757 266.17Z"></path>
	<path fill="#5AD857" transform="scale(2 2)" d="M349.125 139.806C359.796 119.981 386.874 114.509 405.891 124.813C437.342 141.854 432.324 190.698 402.664 201.743C406.659 189.764 397.738 185.928 390.159 177.878C381.016 168.164 372.172 157.875 362.292 148.897C358.453 145.408 354.896 145.423 349.921 146.808C354.231 142.702 348.5 144.582 349.125 139.806Z"></path>
	<path fill="#831667" transform="scale(2 2)" d="M382.332 133.191C385.175 133.308 387.726 137.683 388.543 140.015C389.409 142.486 373.84 148.899 386.67 151.801C391.277 150.759 395.63 148.089 400.512 149.626C407.214 151.734 407.416 159.081 405.385 164.649C406.992 166.298 411.972 170.549 411.839 172.934C411.542 178.267 404.389 171.901 402.664 168.698C401.633 169.113 386.009 177.258 388.964 169.251C389.775 167.052 405.671 164.35 401.159 156.615C397.266 149.942 383.227 162.584 378.083 153.389C375.085 148.031 377.228 142.622 382.332 139.806C380.445 136.925 378.979 135.423 382.332 133.191Z"></path>
	<path fill="#FCD545" transform="scale(2 2)" d="M353.815 150.782C360.421 150.725 379.492 174.208 384.832 179.842C388.484 183.695 393.665 188.166 396.827 192.251C402.601 199.709 393.359 204.922 388.553 209.606C383.003 215.015 373.882 225.044 367.725 229.325C360.878 234.087 361.403 228.085 349.125 240.708C348.32 241.312 347.398 241.78 346.525 242.277C340.102 238.815 331.621 225.96 326.242 220.162C321.86 215.439 303.051 200.748 305.918 195.007C306.844 193.155 348.331 152.68 353.815 150.782Z"></path>
	<path fill="#831667" transform="scale(2 2)" d="M335.403 177.17C337.886 177.353 340.658 181.276 342.349 182.982C345.568 181.985 351.474 179.959 354.351 181.951C355.447 182.709 355.827 184.646 354.881 185.668C353.864 186.768 338.508 186.875 340.688 194.375C342.604 200.966 362.266 186.718 366.778 199.399C367.942 202.672 367.143 205.692 365.783 208.73C367.977 210.786 374.226 217.554 366.794 216.881C365.117 215.727 363.594 214.309 362.047 212.987C358.384 214.709 344.585 218.008 349.234 210.825C350.304 209.17 353.666 210.606 355.354 210.218C358.908 209.4 365.373 202.656 360.053 199.91C353.709 196.635 338.139 209.627 335.327 195.477C334.614 191.884 336.349 189.201 338.286 186.385C335.42 183.617 329.825 180.649 335.403 177.17Z"></path>
	<path fill="#FCD545" transform="scale(2 2)" d="M328.46 266.713C351.201 266.716 374.043 267.229 396.757 266.17C396.647 271.891 397.768 277.908 398.133 283.664C399.117 299.233 398.875 315.542 397.803 331.108C397.529 335.095 396.58 339.306 396.757 343.268C368.162 354.476 367.483 343.945 345.647 345.09C343.458 345.205 336.634 346.201 335.071 344.603C332.824 342.305 328.745 273.485 328.46 266.713Z"></path>
	<path fill="#831667" transform="scale(2 2)" d="M373.988 280.758C377.928 280.713 377.866 283.234 377.599 286.453C382.869 287.983 391.717 294.26 389.036 300.419C386.859 305.422 384.044 301.218 383.116 297.91C380.407 288.249 363.84 292.308 367.295 300.946C369.278 305.905 377.687 305.445 382.057 307.224C395.134 312.547 390.907 326.73 377.599 331.244C377.886 333.531 377.883 334.83 376.528 336.739C372.142 338.381 372.202 334.35 372.281 331.244C365.379 328.474 354.695 316.701 363.178 315.207C366.55 314.614 367.242 322.451 371.689 324.706C377.152 327.474 385.577 322.649 383.077 316.178C381.073 310.992 371.809 311.281 367.327 309.288C355.608 304.077 360.398 290.779 372.281 286.453C372.203 284.099 371.797 282.233 373.988 280.758Z"></path>
	<path fill="#FCB040" transform="scale(2 2)" d="M91.0849 296.693C84.515 280.788 82.684 255.174 85.0079 238.716C90.1043 202.624 107.998 170.449 137.258 148.439C195.244 104.821 277.285 113.413 321.432 172.314C317.441 176.918 312.669 181.028 308.242 185.209C296.551 196.252 298.257 199.462 308.146 209.301C319.195 220.292 329.61 231.223 339.151 243.621C334.172 250.073 326.939 255.851 322.8 262.761C322.612 266.967 323.157 271.23 323.519 275.42C325.336 290.68 327.638 314.692 327.484 330.214C325.639 333.724 322.67 336.883 320.117 339.899C280.452 386.748 209.951 400.96 155.527 372.173C128.293 357.768 99.4202 327.336 91.0849 296.693Z"></path>
	<path fill="#FCD545" transform="scale(2 2)" d="M146.992 178.314C160.712 177.52 153.055 200.979 136.301 204.332C121.704 205.402 131.225 182.175 146.992 178.314Z"></path>
	<path fill="#FCD545" transform="scale(2 2)" d="M182.423 145.835C206.78 141.682 205.266 171.232 176.087 175.998C163.384 176.648 152.043 170.536 161.918 157.314C166.701 150.91 174.633 146.938 182.423 145.835Z"></path>
	<path fill="#831667" transform="scale(2 2)" d="M264.662 214.254C290.43 211.401 304.934 242.907 291.917 249.629C283.688 253.878 279.199 247.968 272.4 245.821C261.013 244.536 261.29 248.701 253.386 250.447C248.076 251.62 241.504 248.708 240.526 242.939C238.351 230.112 252.198 216.219 264.662 214.254Z"></path>
	<path fill="#9333E9" transform="scale(2 2)" d="M266.938 218.698C276.312 219.235 283.227 222.383 288.314 230.82C290.372 234.234 294.9 242.584 289.722 245.362C284.28 248.282 278.578 242.556 272.4 240.708C268.186 240.841 262.917 240.749 258.997 242.422C255.558 243.89 246.799 249.743 245.628 241.482C244.072 230.506 256.968 220.387 266.938 218.698Z"></path>
	<path fill="#831667" transform="scale(2 2)" d="M165.126 214.254C184.517 206.391 210.357 243.709 189.383 251.063C183.834 253.008 177.803 249.109 172.965 246.821C165.574 241.738 160.657 250.08 152.468 250.947C132.152 253.097 142.558 215.351 165.126 214.254Z"></path>
	<path fill="#9333E9" transform="scale(2 2)" d="M167.657 218.698C184.463 216.463 199.369 240.755 189.374 245.537C183.651 248.275 176.776 242.526 171.457 240.708C164.446 238.719 160.185 243.246 153.968 245.356C139.218 250.362 146.698 220.271 167.657 218.698Z"></path>
	<path fill="#831667" transform="scale(2 2)" d="M260.279 284.569C267.547 283.592 273.869 289.428 274.669 296.509C275.485 303.736 265.73 324.449 261.402 329.931C242.743 353.567 209.289 356.257 186.145 337.695C176.892 329.657 158.962 302.73 167.107 290.502C172.586 282.277 182.12 285.737 189.978 287.336C218.675 293.176 233.613 289.781 260.279 284.569Z"></path>
	<path fill="#9333E9" transform="scale(2 2)" d="M265.677 311.551C266.483 312.18 265.183 314.262 264.853 314.973C248.928 349.236 209.362 355.328 183.298 328.091C178.933 323.136 175.96 317.384 172.965 311.551C206.059 321.817 231.885 322.972 265.677 311.551Z"></path>
	<path fill="white" transform="scale(2 2)" d="M261.922 289.931C267.215 288.851 270.519 295.482 269.478 299.903C267.562 308.038 257.415 309.243 250.674 310.875C225.534 316.959 204.156 315.356 179.391 308.556C171.808 306.476 165.701 298.682 171.927 292.393C176.552 287.722 188.545 292.387 194.384 293.339C211.895 296.193 231.324 296.556 248.747 292.479C253.108 291.459 257.418 290.035 261.922 289.931Z"></path>
</svg>